<?xml version="1.0" standalone="no"?>
<!DOCTYPE svg PUBLIC "-//W3C//DTD SVG 20010904//EN"
 "http://www.w3.org/TR/2001/REC-SVG-20010904/DTD/svg10.dtd">
<svg version="1.0" xmlns="http://www.w3.org/2000/svg"
 width="700.000000pt" height="700.000000pt" viewBox="0 0 700.000000 700.000000"
 preserveAspectRatio="xMidYMid meet">
<metadata>
Created by potrace 1.11, written by Peter Selinger 2001-2013
</metadata>
<g transform="translate(0.000000,700.000000) scale(0.100000,-0.100000)"
fill="#000000" stroke="none">
<path d="M388 5643 c-70 -44 -63 -139 13 -179 20 -10 28 -21 25 -32 -2 -9 -8
-44 -11 -77 -9 -80 -14 -123 -20 -165 -2 -19 -7 -55 -10 -80 -3 -25 -8 -61
-10 -80 -3 -19 -7 -61 -11 -93 -3 -32 -7 -66 -9 -75 -3 -19 -16 -126 -30 -242
-3 -25 -7 -61 -10 -81 -3 -20 -8 -55 -10 -79 -2 -24 -7 -59 -9 -79 -3 -20 -8
-58 -11 -86 -4 -27 -8 -59 -9 -70 -2 -11 -6 -49 -10 -85 -4 -36 -9 -76 -11
-90 -2 -14 -11 -83 -20 -155 -8 -71 -17 -147 -20 -167 -5 -39 -9 -70 -20 -168
-4 -30 -8 -66 -10 -80 -3 -14 -7 -50 -10 -80 -3 -30 -7 -66 -10 -80 -2 -14 -6
-50 -10 -80 -5 -50 -13 -112 -20 -150 -2 -8 -6 -42 -9 -75 -11 -97 -11 -98
-35 -102 -59 -9 -97 -61 -87 -119 8 -40 57 -84 94 -85 15 0 36 -2 47 -4 11 -2
63 -9 115 -15 52 -7 102 -14 110 -15 9 -2 45 -6 80 -10 36 -3 76 -8 90 -10 14
-1 48 -6 75 -9 82 -11 117 -15 175 -23 30 -4 93 -8 140 -8 75 0 93 4 151 31
65 31 105 65 156 131 14 18 28 31 32 29 3 -2 62 -7 131 -11 69 -4 126 -9 128
-10 2 -2 -3 -23 -12 -48 -69 -205 60 -426 271 -465 28 -5 67 -8 86 -7 32 3 35
1 40 -31 14 -83 97 -193 176 -233 51 -26 114 -42 170 -43 48 0 49 0 60 -41 30
-101 111 -196 203 -237 49 -21 83 -28 149 -29 l46 -1 13 -47 c63 -227 333
-332 532 -207 39 25 118 103 118 116 0 5 10 8 23 8 55 0 122 34 177 89 50 50
136 146 188 211 18 22 19 22 45 5 17 -10 27 -26 27 -40 0 -69 43 -107 122
-108 74 -1 121 9 183 39 69 34 105 69 240 229 20 24 21 24 65 9 56 -19 146
-25 202 -12 105 23 167 69 293 216 l59 70 41 -15 c114 -40 269 -17 357 55 90
74 168 181 184 252 28 131 -15 248 -126 341 -28 23 -50 45 -50 48 0 5 262 7
293 2 4 0 7 -7 7 -13 0 -31 61 -137 101 -177 54 -54 146 -99 221 -107 46 -5
144 3 268 21 14 2 48 6 75 10 28 3 66 7 85 9 19 3 59 8 89 11 30 4 62 8 72 10
10 2 44 6 76 10 117 11 219 27 244 36 32 13 58 56 57 98 -1 41 -46 91 -81 91
-29 0 -33 9 -42 90 -3 30 -8 71 -10 90 -3 19 -7 55 -10 80 -4 25 -8 56 -10 70
-2 14 -6 48 -10 75 -3 28 -8 66 -10 85 -3 19 -7 58 -10 85 -5 48 -12 101 -20
155 -2 14 -6 54 -10 90 -3 36 -8 72 -10 80 -2 8 -7 40 -10 70 -3 30 -13 109
-21 175 -8 66 -17 140 -20 165 -3 25 -7 59 -10 75 -2 17 -6 48 -8 70 -2 22 -9
81 -15 130 -7 50 -14 108 -16 130 -3 22 -8 58 -10 80 -6 41 -13 94 -20 155 -2
19 -11 91 -20 160 -22 178 -23 185 -35 290 -6 52 -13 103 -16 112 -3 9 3 22
12 30 57 45 74 68 74 97 0 43 -17 75 -51 95 -29 17 -56 17 -179 0 -14 -2 -44
-6 -66 -8 -23 -3 -64 -8 -90 -11 -95 -12 -210 -26 -244 -30 -19 -3 -95 -12
-168 -21 -141 -16 -191 -30 -258 -69 -89 -52 -160 -164 -171 -270 l-6 -54 -46
-6 c-25 -4 -69 -10 -98 -14 l-51 -8 -329 186 c-347 195 -421 227 -524 225
-118 -2 -246 -16 -276 -31 -18 -8 -33 -16 -33 -17 -3 -24 -32 -80 -42 -82 -8
-1 -53 -5 -100 -8 l-85 -7 -13 31 c-18 43 -59 62 -123 56 -28 -3 -88 -8 -132
-11 -44 -4 -91 -8 -105 -10 -14 -2 -61 -7 -104 -10 -44 -4 -87 -8 -95 -10
-107 -21 -194 -68 -270 -143 l-64 -64 -83 23 c-77 21 -84 26 -84 49 0 36 -33
85 -66 97 -16 6 -92 28 -168 48 -153 41 -205 42 -301 9 -117 -39 -174 -100
-269 -289 l-69 -137 -126 7 c-109 6 -142 9 -196 14 -6 1 -10 43 -10 104 0 89
-3 109 -26 157 -69 145 -181 212 -394 235 -27 3 -69 8 -92 11 -24 4 -57 7 -75
9 -28 2 -118 13 -248 30 -19 3 -57 7 -85 10 -27 3 -63 7 -80 9 -129 16 -150
16 -177 -1z"/>
</g>
</svg>
